<?xml version="1.0" encoding="utf-8"?>
<!-- Generator: Adobe Illustrator 19.0.0, SVG Export Plug-In . SVG Version: 6.00 Build 0)  -->
<svg version="1.1" id="layer" xmlns="http://www.w3.org/2000/svg" xmlns:xlink="http://www.w3.org/1999/xlink" x="0px" y="0px"
	 viewBox="-153 -46 652 652" style="enable-background:new -153 -46 652 652;" xml:space="preserve">
<style type="text/css">
	.st0{fill:#0D6DB1;}
	.st1{fill:#DC8307;}
	.st2{fill:#773C8C;}
	.st3{fill:#A9C60F;}
</style>
<g>
	<g>
		<path class="st0" d="M297.6,449.5h-37.8v-39.8h-14.1v93h14.1v-40.6h37.8v40.6h14.1v-93h-14.1V449.5z M137.2,457.2
			c-3.9-3.5-8.7-5.6-17.4-6.9l-10.6-1.6c-3.8-0.4-7.4-1.9-10.5-4.3c-2.4-2.2-3.7-5.4-3.5-8.6c0-8.2,6-14.5,17-14.5
			c7.8,0,14.5,1.7,20.3,7.2l9-8.9c-8-7.4-16.6-10.6-28.9-10.6c-19.3,0-31.1,11.1-31.1,27.3c0,7.6,2.2,13.5,6.8,17.8
			c4.1,3.8,10,6.4,17.6,7.4l11,1.6c5.5,0.8,7.8,1.7,10.2,3.9c2.6,2.5,3.9,6.1,3.7,9.7c0,9-7.1,14.2-19.2,14.2
			c-9.5,0-17-2.1-23.8-8.9l-9.4,9.2c8.9,9,19,12.3,32.9,12.3c19.5,0,33.4-10.2,33.4-27.3C144.7,468.3,142.2,461.6,137.2,457.2
			 M193.7,421.6c10.3,0,16.6,6.5,18.8,15.9h14.4c-3.3-18.6-16.1-28.6-33.2-28.6c-9.2-0.1-18,3.4-24.4,9.9c-9.2,9.2-9,19.5-9,37.4
			c0,17.9-0.1,28.2,9,37.4c6.5,6.5,15.3,10.1,24.4,9.9c16.9,0,30.1-10,33.2-28.6h-14.2c-2.2,9.4-8.6,15.9-19,15.9
			c-5.1,0.1-10.1-1.9-13.7-5.6c-4.6-5-5.6-10.3-5.6-29c0-18.7,1.1-24,5.6-29C183.6,423.6,188.5,421.5,193.7,421.6 M518.9,490.1
			v-80.4h-14.1v93h58.9v-12.7L518.9,490.1z M390.6,418.9c-13.6-13.2-35.3-13.2-49,0c-9.2,9.2-9,19.5-9,37.4c0,17.9-0.1,28.2,9,37.4
			c13.6,13.2,35.3,13.2,49,0c9.2-9.2,8.9-19.5,8.9-37.4C399.5,438.3,399.8,428,390.6,418.9 M379.9,485.1c-7.6,7.6-20,7.7-27.7,0
			c0,0,0,0,0,0c-4.6-5-5.5-10.2-5.5-28.9c0-18.7,0.9-23.9,5.5-28.9c7.6-7.6,20-7.7,27.7,0c0,0,0,0,0,0c4.6,5,5.5,10.2,5.5,28.9
			C385.4,474.9,384.5,480.2,379.9,485.1 M475.1,418.9c-13.6-13.2-35.3-13.2-49,0c-9.2,9.2-9,19.5-9,37.4s-0.1,28.2,9,37.4
			c13.6,13.2,35.3,13.2,49,0c9.2-9.2,8.9-19.5,8.9-37.4C484,438.3,484.3,428,475.1,418.9 M464.4,485.1c-7.6,7.6-20,7.7-27.7,0
			c0,0,0,0,0,0c-4.6-5-5.5-10.2-5.5-28.9c0-18.7,0.9-23.9,5.5-28.9c7.6-7.6,20-7.7,27.7,0c0,0,0,0,0,0c4.6,5,5.5,10.2,5.5,28.9
			C469.9,474.9,469,480.2,464.4,485.1 M-202.4,408.3h70.3V225.5h-70.3V408.3z M-202.4,197.4h70.3v-70.2h-70.3V197.4z M247.8,211.4
			c0-46.6-37.8-84.3-84.3-84.3H48v70.3h115.5c7.8,0.3,13.8,6.8,13.6,14.5c-0.3,7.4-6.2,13.3-13.6,13.6H-5.2v182.8h70.3V295.8h98.4
			C210.1,295.8,247.8,258,247.8,211.4 M37,127.1h-70.7c0-15.5,12.6-28.1,28.1-28.1c0,0,0,0,0,0l0,0h70.3V28.7H-5.6l0,0
			c-54.3,0-98.4,44-98.4,98.4c0,0,0,0,0,0.1h-17.1v70.2h17v210.9h70.3V197.4H37V127.1z"/>
		<path class="st1" d="M-124,472.7l6.7,4.3c6.7-10.3,168.1-250.6,533.6-140.6l2.3-7.6C47.4,217.2-117.2,462.2-124,472.7"/>
		<path class="st2" d="M43.6,365.9C-66.7,416-121.4,483.5-121.9,484.2l6.2,5c0.5-0.7,54.3-67,163-116.3
			c100.2-45.5,269.2-85.3,504.5-16.8l2.2-7.6C316.1,279.2,145.1,319.7,43.6,365.9"/>
		<path class="st3" d="M-24.8,398C-152,451.9-214.1,520.5-216.7,523.4l5.9,5.3c2.5-2.9,63.5-70.1,189.1-123.4
			c115.9-49.1,311.4-94.7,584.4-33.2l1.7-7.7C289.5,302.4,92.2,348.5-24.8,398"/>
	</g>
</g>
</svg>
