<svg xmlns:svg="http://www.w3.org/2000/svg" xmlns="http://www.w3.org/2000/svg" version="1.0"
    width="921.25983" height="164.40944" id="svg2">
    <defs id="defs4" />
    <g transform="translate(-2051.7363,594.40713)" id="layer1">
        <g transform="translate(17.716584,17.804625)" id="g59198">
            <path
                d="M 2641.7972,-593.98172 C 2676.0143,-596.51535 2710.5932,-587.66034 2726.3916,-569.32835 C 2731.4436,-563.46579 2738.1474,-550.00231 2734.0436,-538.72069 C 2731.2956,-531.16056 2724.7145,-523.06002 2712.7903,-521.71927 C 2706.7901,-521.04636 2699.6634,-521.81613 2692.8119,-522.14241 C 2685.9299,-522.47378 2680.572,-522.69296 2673.6794,-522.99375 C 2660.6699,-523.56469 2640.829,-520.77616 2641.7972,-534.04595 C 2642.307,-540.98416 2647.6037,-542.48292 2654.1293,-542.97234 C 2667.0674,-543.95113 2678.9761,-544.26211 2693.6631,-545.09816 C 2699.8216,-545.44988 2709.2221,-545.14404 2710.6646,-548.92666 C 2713.1778,-555.49781 2704.0171,-561.98743 2697.9096,-565.07675 C 2679.1548,-574.56388 2643.1329,-576.6795 2626.0706,-564.65361 C 2614.5644,-556.54287 2605.3426,-537.54818 2612.4693,-517.89076 C 2620.9167,-494.59348 2650.7543,-484.75458 2686.8574,-487.28821 C 2696.8341,-487.98661 2709.6707,-489.85752 2718.3166,-491.53985 C 2726.514,-493.12527 2742.3939,-497.51966 2742.9698,-486.00863 C 2743.551,-474.47215 2720.8502,-470.82208 2711.088,-469.0072 C 2695.9369,-466.18808 2681.2756,-465.60694 2665.6045,-465.60694 C 2632.7895,-465.60694 2607.412,-474.02352 2590.7882,-488.56269 C 2581.245,-496.90789 2575.3059,-507.47072 2572.5122,-519.17034 C 2565.1762,-549.85957 2582.6822,-573.08552 2602.2683,-583.78086 C 2612.8617,-589.56694 2627.2787,-592.91116 2641.7972,-593.98172"
                style="font-size:14px;letter-spacing:0;word-spacing:0;fill:#573018;fill-rule:nonzero;stroke:none;font-family:fnt1, &quot;TradeGothicLTStd&quot;, Arial"
                id="path58372" />
            <path
                d="M 2168.6735,-593.55862 C 2179.899,-594.09392 2196.7272,-593.66568 2211.6079,-592.70728 C 2223.4045,-591.94771 2244.8002,-593.04375 2246.0441,-583.3578 C 2247.5837,-571.29111 2232.2136,-572.81536 2220.1111,-571.87735 C 2214.6411,-571.45425 2207.5348,-570.98013 2202.6814,-570.60287 C 2193.2862,-569.87388 2183.4473,-570.24604 2183.5542,-559.9789 C 2183.6308,-552.14347 2197.1657,-546.41346 2204.3841,-542.12104 C 2221.7323,-531.80292 2235.9095,-523.09065 2252.4163,-513.21606 C 2260.6291,-508.30171 2273.5521,-504.03477 2273.6696,-492.81437 C 2273.8376,-477.04154 2256.9842,-476.09334 2240.9411,-474.11026 C 2195.106,-468.44649 2144.0815,-471.41346 2098.1086,-476.23095 C 2089.116,-477.17915 2078.2473,-478.08661 2070.9064,-479.20811 C 2062.0716,-480.55906 2052.2837,-483.25583 2051.7739,-489.83721 C 2050.6629,-504.28458 2074.4139,-499.02356 2087.4846,-498.34046 C 2117.6946,-496.75503 2146.7476,-496.24012 2178.0283,-497.91226 C 2191.1756,-498.61575 2211.3836,-498.41693 2211.1846,-511.09024 C 2211.0981,-516.46852 2206.622,-519.03783 2202.2584,-521.71935 C 2181.7344,-534.31619 2161.8677,-546.5817 2141.8942,-558.69932 C 2134.6709,-563.08862 2122.1247,-568.41081 2122.3388,-577.83167 C 2122.6957,-593.37003 2151.4374,-592.73787 2168.6735,-593.55862"
                style="font-size:14px;letter-spacing:0;word-spacing:0;fill:#573018;fill-rule:nonzero;stroke:none;font-family:fnt1, &quot;TradeGothicLTStd&quot;, Arial"
                id="path58376" />
            <path
                d="M 2778.6804,-590.15828 C 2785.4915,-591.94767 2801.6059,-590.58142 2812.6835,-590.58142 L 2879.853,-590.58142 C 2889.6817,-590.58142 2904.4862,-592.48802 2912.1586,-589.73008 C 2919.2037,-587.20151 2924.5106,-577.40849 2920.2335,-568.05391 C 2916.3541,-559.57611 2902.3401,-555.39075 2893.0261,-551.04738 C 2867.0067,-538.92462 2845.5853,-527.6277 2818.6376,-514.9187 C 2815.1049,-513.25171 2805.8369,-511.40118 2806.3113,-505.56412 C 2806.8313,-499.11528 2828.6907,-499.89525 2837.3419,-499.18666 C 2858.7376,-497.44319 2882.6517,-495.506 2906.204,-493.66567 C 2919.0863,-492.65629 2940.4668,-494.84835 2937.2346,-479.20807 C 2935.2109,-469.38956 2913.6215,-472.4075 2901.5293,-472.4075 L 2796.1053,-472.4075 C 2788.917,-472.4075 2779.5014,-472.05574 2775.2802,-473.25884 C 2764.2333,-476.40424 2754.2822,-490.52537 2760.8229,-504.71274 C 2765.4209,-514.68929 2778.6703,-518.25783 2790.156,-523.42199 C 2810.3131,-532.48092 2826.713,-540.21949 2847.9708,-549.7729 C 2852.075,-551.61833 2856.556,-552.99477 2856.0462,-558.27618 C 2855.4801,-564.13364 2844.7541,-564.2356 2837.3419,-565.07675 C 2820.0141,-567.04963 2808.1054,-568.19665 2791.4306,-570.17973 C 2786.0829,-570.81695 2774.6277,-571.60201 2772.7263,-576.98029 C 2770.4782,-583.34752 2773.8581,-588.88894 2778.6804,-590.15828"
                style="font-size:14px;letter-spacing:0;word-spacing:0;fill:#573018;fill-rule:nonzero;stroke:none;font-family:fnt1, &quot;TradeGothicLTStd&quot;, Arial"
                id="path58380" />
            <path
                d="M 2274.5208,-588.88384 C 2286.2052,-591.27472 2289.2078,-579.67196 2294.0762,-572.72865 C 2305.2761,-556.7519 2319.0662,-543.52799 2334.8846,-532.77147 C 2355.4038,-518.81858 2383.5391,-506.88444 2419.9019,-512.36468 C 2449.842,-516.88138 2475.9483,-530.67624 2496.4214,-543.82368 C 2511.8066,-553.70336 2528.6906,-566.12691 2542.756,-578.68297 C 2547.0943,-582.55226 2551.8914,-589.60772 2558.906,-589.30694 C 2563.3666,-589.11835 2568.0262,-585.96276 2568.2608,-580.80879 C 2568.5511,-574.29878 2558.9822,-566.38687 2554.6542,-561.67644 C 2539.014,-544.63423 2520.8298,-528.05594 2503.6451,-514.4905 C 2479.2718,-495.2511 2449.4545,-477.99986 2415.2272,-472.4075 C 2373.2516,-465.55086 2339.7836,-481.36448 2316.609,-500.88934 C 2299.5871,-515.22459 2285.3026,-534.28556 2274.0978,-556.57346 C 2269.7339,-565.25008 2258.3912,-585.5804 2274.5208,-588.88384"
                style="font-size:14px;letter-spacing:0;word-spacing:0;fill:#573018;fill-rule:nonzero;stroke:none;font-family:fnt1, &quot;TradeGothicLTStd&quot;, Arial"
                id="path58384" />
        </g>
    </g>
</svg>