<svg xmlns="http://www.w3.org/2000/svg" xmlns:xlink="http://www.w3.org/1999/xlink" version="1.1"
    id="Layer_1" width="1068.242" height="376.965" viewBox="0 0 1068.242 376.965" overflow="visible"
    enable-background="new 0 0 1068.242 376.965" xml:space="preserve">
<g>
	<g>
		<path fill="#006CB7" d="M53.545,171.479H2.217V2.807h88.793l101.833,125.927V2.807h51.326v168.673h-86.975L53.545,43.406V171.479z    "/>
		<path fill="#006CB7" d="M489.752,119.329c0,23.434-4.295,31.523-11.375,39.281c-10.899,11.554-26.748,15.02-57.28,15.02h-87.634    c-30.543,0-46.388-3.466-57.274-15.02c-7.098-7.758-11.386-15.847-11.386-39.281V54.297c0-23.441,4.288-31.516,11.386-39.28    C287.074,3.466,302.919,0,333.462,0h87.634c30.532,0,46.38,3.466,57.28,15.018c7.081,7.764,11.375,15.839,11.375,39.28V119.329z     M418.948,130.881c11.718,0,15.85-0.667,18.653-3.135c2.641-2.307,3.794-5.286,3.794-15.194V61.068    c0-9.905-1.153-12.87-3.794-15.193c-2.804-2.469-6.936-3.118-18.653-3.118h-83.345c-11.721,0-15.842,0.649-18.652,3.118    c-2.638,2.323-3.788,5.289-3.788,15.193v51.484c0,9.908,1.15,12.887,3.788,15.194c2.81,2.468,6.932,3.135,18.652,3.135H418.948z"/>
		<path fill="#006CB7" d="M564.347,2.807v168.673h-53.629V2.807H564.347z M654.951,2.807h70.798l-95.554,78.892l107.793,89.781    h-75.782l-97.859-87.972L654.951,2.807z"/>
		<path fill="#006CB7" d="M801.529,2.807v168.673h-53.651V2.807H801.529z"/>
		<path fill="#006CB7" d="M1006.015,171.479L990.161,142.1h-103.8l-15.685,29.379h-59.256L906.484,2.807h66.684l95.074,168.673    H1006.015z M904.995,105.458h66.683l-33.353-61.062L904.995,105.458z"/>
		<path fill="#006CB7" d="M54.798,348.752c-3.638,1.306-12.382,2.135-18.983,2.135C4.947,350.887,0,316.235,0,290.305    c0-18.311,2.803-38.781,13.202-51.491c5.937-7.265,12.87-11.051,26.075-11.051c5.775,0,11.057,0.826,15.521,1.813v10.898    c-4.463-1.163-8.923-2.144-14.861-2.144c-8.907,0-13.033,3.297-16.499,8.417c-7.095,10.72-8.417,29.527-8.417,42.571    c0,10.238,0.324,23.785,3.787,34.181c3.466,10.554,8.921,16.826,20.307,16.826c5.285,0,10.06-0.835,15.683-2.318V348.752z"/>
		<path fill="#006CB7" d="M88.959,350.887c-26.735,0-31.199-27.237-31.199-50.181c0-21.784,6.767-46.529,31.534-46.529    c24.584,0,30.854,24.598,30.854,46.191C120.148,323.153,115.697,350.887,88.959,350.887z M89.114,264.402    c-15.338,0-17.323,21.632-17.323,36.155c0,17.158,1.484,40.1,17.323,40.1c15.519,0,17.009-23.601,17.009-39.785    C106.124,286.528,103.977,264.402,89.114,264.402z"/>
		<path fill="#006CB7" d="M146.555,269.52c4.629-9.729,12.052-15.343,22.446-15.343c18.148,0,23.604,12.873,23.604,29.689v65.699    h-13.699v-60.247c0-7.597-0.332-13.192-1.986-17.491c-1.657-4.296-4.785-7.425-10.719-7.425c-13.536,0-17.01,16.18-17.01,25.749    v59.414H135.5v-94.074h7.754L146.555,269.52z"/>
		<path fill="#006CB7" d="M221.646,269.52c4.623-9.729,12.052-15.343,22.44-15.343c18.169,0,23.604,12.873,23.604,29.689v65.699    h-13.699v-60.247c0-7.597-0.332-13.192-1.975-17.491c-1.647-4.296-4.792-7.425-10.731-7.425c-13.533,0-16.999,16.18-16.999,25.749    v59.414h-13.692v-94.074h7.743L221.646,269.52z"/>
		<path fill="#006CB7" d="M338.497,347.258c-7.264,2.308-14.863,3.629-22.613,3.629c-28.392,0-33.333-24.439-33.333-48.354    c0-20.811,5.773-48.193,31.022-48.193c27.892,0,28.057,31.35,28.057,51.652h-45.222c0,15.019,2.313,34.666,20.794,34.666    c6.431,0,13.043-1.319,21.294-3.625V347.258z M328.263,296.084c0-13.685-1.985-31.682-14.69-31.682    c-13.363,0-16.343,18.325-17.165,31.682H328.263z"/>
		<path fill="#006CB7" d="M402.205,348.411c-3.967,0.987-9.905,2.476-17.333,2.476c-24.429,0-31.358-23.933-31.358-48.354    c0-28.563,9.905-48.355,33.007-48.355c5.281,0,10.067,0.475,13.533,1.149v10.57c-4.119-1-7.426-1.494-12.38-1.494    c-16.336,0-20.134,16.513-20.134,38.615c0,18.488,2.475,37.64,19.968,37.64c5.282,0,10.889-1.319,14.697-2.306V348.411z"/>
		<path fill="#006CB7" d="M455.339,348.904c-5.12,1.153-10.733,1.982-15.842,1.982c-9.411,0-13.865-2.821-16.668-7.774    c-2.15-4.12-2.972-8.579-2.972-19.959v-57.422h-11.89v-10.24h11.559l5.938-20.962h8.089v20.962h17.828v10.24h-17.828v56.929    c0,8.58,0.663,12.052,1.823,14.189c1.146,2.488,3.629,3.808,8.579,3.808c2.8,0,6.601-0.498,11.386-1.665V348.904z"/>
		<path fill="#006CB7" d="M482.081,349.565h-13.709v-83.834h-9.566v-10.24h23.275V349.565z M475.142,241.808    c-5.117,0-9.083-4.119-9.083-9.419c0-5.297,3.966-9.4,9.083-9.4c4.958,0,9.079,4.281,9.079,9.4    C484.221,237.688,480.258,241.808,475.142,241.808z"/>
		<path fill="#006CB7" d="M511.958,269.52c4.605-9.729,12.038-15.343,22.429-15.343c18.152,0,23.611,12.873,23.611,29.689v65.699    h-13.699v-60.247c0-7.597-0.333-13.192-1.976-17.491c-1.666-4.296-4.802-7.425-10.743-7.425c-13.529,0-16.992,16.18-16.992,25.749    v59.414h-13.699v-94.074h7.754L511.958,269.52z"/>
		<path fill="#006CB7" d="M626.825,255.491h7.74v89.133c0,9.224-1.639,16.171-6.092,22.101c-4.958,6.45-12.892,10.24-23.284,10.24    c-8.249,0-17.479-1.634-26.247-3.958v-10.415c8.925,2.32,17.845,3.968,24.601,3.968c16.51,0,17.829-8.582,17.829-22.433v-5.956    c-3.967,6.274-11.552,11.558-19.976,11.558c-24.255,0-28.554-28.046-28.554-48.347c0-20.646,6.1-47.205,29.545-47.205    c9.749,0,16.675,6.599,20.78,14.014L626.825,255.491z M604.371,264.402c-15.017,0-17.513,21.632-17.513,38.615    c0,13.383,1.181,36.473,17.186,36.473c15.857,0,16.824-21.111,16.824-38.272C620.868,287.173,619.217,264.402,604.371,264.402z"/>
		<path fill="#006CB7" d="M700.418,229.081c14.028,0,18.81,1.004,23.438,2.814c12.194,4.612,17.825,15.842,17.825,34.001    c0,13.025-3.471,23.763-9.892,30.354c-5.454,5.628-13.22,8.907-24.271,8.907h-11.73v44.408h-13.686V229.081H700.418z     M703.398,294.931c8.244,0,13.682-0.812,18.001-4.943c4.937-4.789,6.248-13.713,6.248-24.422c0-11.062-2.32-19.985-8.748-23.608    c-2.457-1.316-5.438-2.646-15.198-2.646h-7.912v55.62H703.398z"/>
		<path fill="#006CB7" d="M805.884,347.258c-7.261,2.308-14.865,3.629-22.626,3.629c-28.36,0-33.329-24.439-33.329-48.354    c0-20.811,5.786-48.193,31.026-48.193c27.891,0,28.079,31.35,28.079,51.652H763.8c0,15.019,2.31,34.666,20.791,34.666    c6.428,0,13.028-1.319,21.293-3.625V347.258z M795.641,296.084c0-13.685-1.948-31.682-14.686-31.682    c-13.381,0-16.337,18.325-17.155,31.682H795.641z"/>
		<path fill="#006CB7" d="M852.078,350.887c-26.723,0-31.177-27.237-31.177-50.181c0-21.784,6.761-46.529,31.525-46.529    c24.567,0,30.854,24.598,30.854,46.191C883.281,323.153,878.835,350.887,852.078,350.887z M852.259,264.402    c-15.35,0-17.324,21.632-17.324,36.155c0,17.158,1.468,40.1,17.324,40.1c15.519,0,16.992-23.601,16.992-39.785    C869.251,286.528,867.103,264.402,852.259,264.402z"/>
		<path fill="#006CB7" d="M909.708,269.195c5.262-10.229,13.505-15.019,22.931-15.019c23.094,0,27.06,24.745,27.06,47.533    c0,27.072-9.907,48.661-36.971,48.661c-2.958,0-7.913-0.313-10.412-0.973v27.069h-13.682V255.491h7.744L909.708,269.195z     M912.315,338.841c2.986,0.829,8.092,1.318,11.227,1.318c18.346,0,22.122-17.499,22.122-38.449    c0-24.942-5.105-37.308-16.668-37.308c-7.908,0-16.681,6.601-16.681,28.882V338.841z"/>
		<path fill="#006CB7" d="M988.746,349.565h-13.699V221.642h13.699V349.565z"/>
		<path fill="#006CB7" d="M1060.055,347.258c-7.28,2.308-14.851,3.629-22.628,3.629c-28.391,0-33.328-24.439-33.328-48.354    c0-20.811,5.749-48.193,31.024-48.193c27.896,0,28.045,31.35,28.045,51.652h-45.23c0,15.019,2.342,34.666,20.809,34.666    c6.458,0,13.042-1.319,21.309-3.625V347.258z M1049.797,296.084c0-13.685-1.976-31.682-14.674-31.682    c-13.357,0-16.353,18.325-17.186,31.682H1049.797z"/>
	</g>
</g>
</svg>