<?xml version="1.0" standalone="no"?>
<!DOCTYPE svg PUBLIC "-//W3C//DTD SVG 20010904//EN" "http://www.w3.org/TR/2001/REC-SVG-20010904/DTD/svg10.dtd">
<svg version="1.0" xmlns="http://www.w3.org/2000/svg"
    width="2000.000000pt" height="104.7" viewBox="0 0 2000.000000 1047.000000"
    preserveAspectRatio="xMidYMid meet">

    <g transform="translate(0.000000,1047.000000) scale(0.100000,-0.100000)"
        fill="#004990" stroke="none">
        <path
            d="M16241 7616 c-48 -17 -108 -71 -134 -119 -22 -41 -22 -51 -27 -482
-5 -424 -6 -442 -27 -499 -51 -134 -178 -303 -293 -390 -79 -59 -184 -110
-286 -138 -76 -21 -101 -22 -571 -26 l-493 -3 0 -700 0 -699 699 0 700 0 3
493 c4 474 5 495 27 572 28 101 96 232 159 310 84 103 238 214 367 266 59 24
65 24 500 29 486 6 478 4 546 73 67 67 64 37 64 628 l0 536 -30 49 c-19 30
-49 60 -79 79 l-49 30 -521 2 c-393 1 -529 -1 -555 -11z"
            fill="#ed182c" />
        <path
            fill="#ed182c"
            d="M18338 6019 c-193 -28 -335 -97 -472 -228 -142 -137 -223 -300 -248
-497 -9 -79 -8 -109 12 -245 15 -105 20 -173 15 -213 -27 -249 -198 -463 -435
-547 -63 -23 -76 -24 -505 -29 -436 -5 -440 -5 -488 -28 -59 -30 -103 -82
-122 -146 -22 -72 -22 -989 -1 -1060 20 -66 57 -110 118 -140 l52 -26 517 0
c561 0 551 -1 619 57 18 15 43 50 56 78 24 50 24 52 24 450 0 455 4 487 72
624 32 65 60 103 118 161 162 162 339 214 595 175 167 -25 291 -18 415 24 138
46 220 98 331 210 83 84 101 109 147 201 64 131 81 196 89 335 13 239 -70 451
-242 621 -123 121 -267 193 -444 219 -105 16 -137 17 -223 4z" />
        <path
            d="M985 5789 c-121 -110 -220 -205 -220 -209 0 -5 124 -120 275 -256
151 -136 386 -347 521 -468 135 -122 348 -313 473 -426 126 -113 234 -205 242
-205 11 0 217 183 1278 1137 127 114 231 212 231 217 0 7 -305 292 -423 395
-21 18 -22 18 -279 -231 -142 -138 -382 -368 -532 -512 l-275 -261 -45 43
c-259 246 -560 534 -764 732 -137 132 -252 241 -255 242 -4 2 -106 -87 -227
-198z" />
        <path
            d="M9900 5980 c-283 -16 -626 -58 -840 -101 -52 -10 -98 -19 -102 -19
-5 0 -8 -337 -8 -749 0 -705 1 -750 18 -755 79 -22 373 -68 592 -91 494 -52
1206 -45 1705 15 119 15 390 59 438 71 l37 10 0 249 c0 142 -4 250 -9 250 -5
0 -69 -9 -143 -20 -416 -62 -740 -84 -1198 -84 -379 -1 -506 7 -760 44 -36 5
-71 10 -78 10 -10 0 -12 63 -10 298 l3 297 90 12 c553 73 1201 62 1870 -32 94
-14 185 -27 203 -31 l32 -6 0 255 0 255 -47 11 c-165 35 -436 72 -698 96 -200
19 -876 28 -1095 15z" />
        <path d="M4210 5110 l0 -850 305 0 305 0 0 850 0 850 -305 0 -305 0 0 -850z" />
        <path
            d="M5510 5110 l0 -850 295 0 295 0 0 455 0 455 53 -21 c404 -158 983
-490 1412 -808 l109 -81 298 0 298 0 0 850 0 850 -295 0 -295 0 0 -525 c0
-289 -3 -525 -6 -525 -3 0 -97 60 -208 134 -424 282 -883 537 -1223 679 -211
89 -525 192 -705 231 l-28 6 0 -850z" />
        <path d="M12410 5110 l0 -850 305 0 305 0 0 850 0 850 -305 0 -305 0 0 -850z" />
        <path
            d="M11355 3614 c-16 -3 -51 -12 -77 -20 l-48 -16 0 -359 0 -359 85 0 85
0 2 171 3 171 133 -171 134 -171 95 0 95 0 -44 53 c-158 185 -228 271 -228
276 0 4 27 12 61 18 136 26 203 116 177 236 -14 67 -63 120 -136 148 -45 17
-83 22 -182 24 -69 2 -138 1 -155 -1z m247 -91 c62 -31 85 -126 50 -205 -27
-62 -81 -88 -180 -88 l-73 0 3 153 3 152 40 6 c53 7 123 0 157 -18z" />
        <path
            d="M12262 3604 c-153 -41 -245 -142 -273 -298 -31 -183 51 -350 209
-424 54 -25 66 -27 202 -27 94 0 162 5 193 14 l47 14 0 203 0 204 -145 0 -145
0 0 -40 0 -40 65 0 65 0 0 -129 c0 -125 -1 -129 -22 -135 -120 -32 -243 35
-281 153 -21 67 -22 190 -2 259 40 133 171 194 338 159 l69 -14 23 36 c13 20
19 40 15 45 -31 33 -261 46 -358 20z" />
        <path
            d="M13992 3602 c-55 -20 -114 -68 -137 -112 -52 -102 -3 -217 117 -269
158 -70 176 -81 193 -117 15 -32 15 -41 3 -71 -7 -20 -25 -45 -40 -56 -45 -34
-165 -34 -251 -2 -11 5 -20 -6 -32 -40 -10 -25 -15 -48 -12 -51 15 -15 130
-34 208 -34 195 0 309 83 309 226 0 103 -57 163 -210 220 -86 31 -140 77 -140
118 0 96 104 141 235 101 27 -8 49 -13 50 -12 0 1 8 19 18 40 l17 38 -37 16
c-60 26 -225 28 -291 5z" />
        <path
            d="M9060 3235 l0 -375 230 0 230 0 0 45 0 45 -145 0 -145 0 0 125 0 125
125 0 125 0 0 45 0 45 -125 0 -125 0 0 115 0 115 145 0 145 0 0 45 0 45 -230
0 -230 0 0 -375z" />
        <path
            d="M9690 3235 l0 -375 76 0 76 0 -4 286 c-2 193 0 280 7 269 6 -10 98
-138 205 -286 l195 -269 73 0 72 0 0 375 0 375 -76 0 -76 0 4 -265 c2 -190 0
-261 -8 -252 -6 7 -93 126 -194 265 l-183 252 -83 0 -84 0 0 -375z" />
        <path
            d="M10600 3235 l0 -375 225 0 225 0 0 45 0 45 -140 0 -140 0 0 125 0
125 125 0 125 0 0 45 0 45 -125 0 -125 0 0 115 0 115 140 0 140 0 0 45 0 45
-225 0 -225 0 0 -375z" />
        <path d="M12850 3235 l0 -375 85 0 85 0 0 375 0 375 -85 0 -85 0 0 -375z" />
        <path
            d="M13240 3235 l0 -375 225 0 225 0 0 45 0 45 -140 0 -140 0 0 125 0
125 125 0 125 0 0 45 0 45 -125 0 -125 0 0 115 0 115 140 0 140 0 0 45 0 45
-225 0 -225 0 0 -375z" />
    </g>
</svg>