<svg xmlns="http://www.w3.org/2000/svg" width="106" height="41" viewBox="0 0 106 41" fill="none">
    <path
        d="M34.3897 39.3821V1.43851V1.40261C34.3897 1.15133 34.2102 0.935944 33.959 0.935944C33.8154 0.935944 33.7077 1.00774 33.6359 1.07953L17.482 17.9513C17.4102 18.0231 17.3026 18.0949 17.159 18.0949C17.0154 18.0949 16.9077 18.0231 16.8359 17.9513L0.789743 1.15133C0.717948 1.00774 0.574359 0.935944 0.430769 0.935944C0.179487 0.935944 0 1.15133 0 1.40261C0 1.40261 0 1.40261 0 1.43851V39.4539V39.4898C0 39.7411 0.215384 39.9205 0.430769 39.9205H3.48205C3.73333 39.9205 3.91282 39.7052 3.91282 39.4539V11.4539V11.418C3.91282 11.1667 4.1282 10.9513 4.34359 10.9513C4.48718 10.9513 4.59487 11.0231 4.66666 11.0949L16.7282 23.659C16.8 23.7667 16.9436 23.8385 17.0513 23.8385C17.1949 23.8385 17.3026 23.7667 17.3743 23.6949L29.5077 11.2026C29.5795 11.0949 29.7231 11.059 29.8308 11.059C30.082 11.059 30.2615 11.2744 30.2615 11.5257C30.2615 11.5616 30.2615 11.5616 30.2615 11.5975V39.4898C30.2615 39.7052 30.441 39.9205 30.6564 39.9205H30.6923H33.7795H33.8154C34.0666 39.9205 34.2461 39.7052 34.2461 39.4539C34.3897 39.418 34.3897 39.418 34.3897 39.3821Z"
        fill="#626873" />
    <path
        d="M70.323 1.40256C70.323 1.15127 70.1436 0.971786 69.8923 0.971786H69.8564H66.6256C66.4461 0.971786 66.2666 1.07948 66.2307 1.25897L62.0666 10.8077C61.9948 10.9513 61.8512 11.059 61.6718 11.059H45.841C45.6615 11.059 45.5179 10.9513 45.4461 10.8077L41.2102 1.22307C41.1384 1.07948 40.9948 0.971786 40.8154 0.971786H37.5128C37.2615 0.971786 37.082 1.18717 37.082 1.43845C37.082 1.51025 37.082 1.54614 37.1179 1.61794L53.3077 39.8128C53.3795 39.9923 53.523 40.1 53.7025 40.1C53.882 40.1 54.0256 39.9923 54.0974 39.8487L70.323 1.61794C70.323 1.51025 70.323 1.47435 70.323 1.40256ZM60.0205 15.7256L54.0974 29.9769C54.0256 30.1564 53.882 30.2641 53.7025 30.2641C53.523 30.2641 53.3436 30.1564 53.3077 29.9769L47.5282 15.7615C47.4923 15.6897 47.4923 15.6538 47.4923 15.582C47.4923 15.3308 47.6718 15.1513 47.923 15.1154H59.6256C59.8769 15.1154 60.0564 15.3308 60.0564 15.582C60.0564 15.6179 60.0205 15.6897 60.0205 15.7256Z"
        fill="#2F7293" />
    <path
        d="M104.174 13.2487C103.456 11.1667 102.559 9.4077 101.41 7.9359C100.262 6.46411 98.9334 5.27949 97.4257 4.38206C95.918 3.48462 94.4103 2.76667 92.8308 2.22821C91.2513 1.72565 89.7077 1.36668 88.1641 1.18719C86.6206 1.0077 85.2205 0.900009 83.9641 0.900009H73.2667C73.0154 0.900009 72.8359 1.11539 72.8359 1.33078V39.4179C72.8359 39.6692 73.0154 39.8487 73.2667 39.8487H83.3898C84.1795 39.8487 85.2923 39.7769 86.6923 39.6692C88.0923 39.5615 89.6 39.3102 91.2154 38.8795C92.8308 38.4846 94.4821 37.8743 96.1693 37.0487C97.8205 36.2231 99.3282 35.1102 100.692 33.6743C102.021 32.2385 103.133 30.4795 103.995 28.3256C104.856 26.2077 105.287 23.6231 105.287 20.6077C105.215 17.8077 104.856 15.3308 104.174 13.2487ZM99.5795 27.0333C98.7539 28.9359 97.6052 30.5872 96.0975 31.9513C94.5898 33.3154 92.759 34.3564 90.6052 35.1102C88.4513 35.8641 86.0462 36.2231 83.3898 36.2231H77.4308C77.1795 36.2231 77 36.0077 77 35.7923V4.99231C77 4.74103 77.1795 4.56155 77.4308 4.56155H83.9641C86.6205 4.56155 88.9898 4.92052 91.0718 5.67437C93.1539 6.42821 94.9129 7.46924 96.3846 8.86924C97.8564 10.2692 98.9334 11.9564 99.6872 13.9308C100.441 15.9051 100.836 18.1667 100.836 20.6436C100.8 23.0128 100.369 25.1308 99.5795 27.0333Z"
        fill="#626873" />
</svg>