<svg xmlns="http://www.w3.org/2000/svg" xmlns:xlink="http://www.w3.org/1999/xlink" id="Calque_1"
	data-name="Calque 1" viewBox="0 0 467.87 299.42">
	<script xmlns="" src="chrome-extension://mfidniedemcgceagapgdekdbmanojomk/js/elephant.js" />
	<defs>
		<clipPath id="clip-path" transform="translate(0 0)">
			<rect width="467.87" height="299.42" style="fill:none" />
		</clipPath>
	</defs>
	<title>logo-ifpSchool</title>
	<g style="clip-path:url(#clip-path)">
		<path
			d="M308,252H285.38V228.17h-8.45v55.71h8.45V259.55H308v24.34h8.45V228.17H308Zm-96.09,4.62c-2.35-2.11-5.24-3.37-10.41-4.15l-6.34-.94a12.45,12.45,0,0,1-6.26-2.58,6.62,6.62,0,0,1-2.11-5.16c0-4.93,3.6-8.69,10.17-8.69,4.7,0,8.69,1,12.13,4.3l5.4-5.32c-4.77-4.46-9.94-6.34-17.29-6.34-11.58,0-18.62,6.65-18.62,16.35,0,4.54,1.33,8.06,4.07,10.64,2.43,2.27,6,3.83,10.56,4.46l6.57.94c3.29.47,4.69,1,6.1,2.35a7.49,7.49,0,0,1,2.19,5.79c0,5.4-4.23,8.53-11.5,8.53-5.71,0-10.17-1.25-14.24-5.32L176.69,277c5.32,5.4,11.35,7.35,19.72,7.35,11.66,0,20-6.1,20-16.35,0-4.77-1.49-8.76-4.54-11.42m33.88-21.28c6.18,0,9.94,3.91,11.27,9.54h8.61c-2-11.11-9.62-17.14-19.88-17.14a20.19,20.19,0,0,0-14.63,5.95c-5.48,5.48-5.4,11.66-5.4,22.38s-.08,16.9,5.4,22.38a20.19,20.19,0,0,0,14.63,5.95c10.1,0,18-6,19.88-17.14h-8.53c-1.33,5.63-5.16,9.55-11.35,9.55a11.13,11.13,0,0,1-8.21-3.36c-2.74-3-3.37-6.18-3.37-17.37s.63-14.4,3.37-17.37a11.13,11.13,0,0,1,8.21-3.36m194.76,41V228.17h-8.45v55.71h35.29V276.3ZM363.7,233.65a21.07,21.07,0,0,0-29.34,0c-5.48,5.48-5.4,11.66-5.4,22.38s-.08,16.9,5.4,22.38a21.07,21.07,0,0,0,29.34,0c5.48-5.48,5.32-11.66,5.32-22.38s.16-16.9-5.32-22.38m-6.42,39.67a11.72,11.72,0,0,1-16.59,0c-2.74-3-3.29-6.11-3.29-17.29s.55-14.32,3.29-17.29a11.71,11.71,0,0,1,16.59,0c2.74,3,3.29,6.1,3.29,17.29s-.55,14.32-3.29,17.29m57-39.67a21.07,21.07,0,0,0-29.34,0c-5.48,5.48-5.4,11.66-5.4,22.38s-.08,16.9,5.4,22.38a21.07,21.07,0,0,0,29.34,0c5.48-5.48,5.32-11.66,5.32-22.38s.16-16.9-5.32-22.38m-6.42,39.67a11.71,11.71,0,0,1-16.59,0c-2.74-3-3.29-6.11-3.29-17.29s.55-14.32,3.29-17.29a11.71,11.71,0,0,1,16.59,0c2.74,3,3.29,6.1,3.29,17.29s-.55,14.32-3.29,17.29M8.54,227.3H50.64V117.85H8.54ZM8.54,101h42.1V58.95H8.54Zm269.63,8.42a50.51,50.51,0,0,0-50.51-50.5l-69.17,0V101h69.17a8.42,8.42,0,0,1,0,16.83h-101V227.3h42.09V159.95h58.91a50.51,50.51,0,0,0,50.51-50.51M151.89,58.94H109.57a16.84,16.84,0,0,1,16.84-16.84v0H168.5V0H126.41V0A58.93,58.93,0,0,0,67.47,58.95H57.25V101H67.46V227.3h42.09V101h42.34Z"
			transform="translate(0 0)" style="fill:#0d6db1" />
		<path
			d="M55.48,265.88l4,2.6c4-6.16,100.68-150.07,319.58-84.21l1.37-4.55C158.14,112.85,59.57,259.6,55.48,265.88"
			transform="translate(0 0)" style="fill:#dc8307" />
		<path
			d="M155.84,201.92c-66,30-98.76,70.46-99.08,70.87l3.71,3c.32-.4,32.51-40.12,97.59-69.63,60-27.23,161.22-51.08,302.13-10.08l1.32-4.56C319.06,150,216.65,174.28,155.84,201.92"
			transform="translate(0 0)" style="fill:#773c8c" />
		<path
			d="M114.93,221.15C38.74,253.42,1.54,294.52,0,296.26l3.55,3.17c1.52-1.71,38-42,113.24-73.89,69.43-29.4,186.51-56.72,350-19.88l1-4.64C303.11,163.89,185,191.48,114.93,221.15"
			transform="translate(0 0)" style="fill:#a9c60f" />
	</g>
</svg>