<svg xmlns:dc="http://purl.org/dc/elements/1.1/" xmlns:cc="http://creativecommons.org/ns#"
    xmlns:rdf="http://www.w3.org/1999/02/22-rdf-syntax-ns#" xmlns:svg="http://www.w3.org/2000/svg"
    xmlns="http://www.w3.org/2000/svg" xmlns:xlink="http://www.w3.org/1999/xlink"
    xmlns:sodipodi="http://sodipodi.sourceforge.net/DTD/sodipodi-0.dtd"
    xmlns:inkscape="http://www.inkscape.org/namespaces/inkscape" version="1.1" id="svg833"
    xml:space="preserve" width="599.99945" height="290.49573" viewBox="0 0 599.99945 290.49572"
    sodipodi:docname="Logo Groupe Groupama.svg" inkscape:version="1.0.1 (c497b03c, 2020-09-10)"><metadata id="metadata839"><rdf:RDF><cc:Work rdf:about=""><dc:format>image/svg+xml</dc:format><dc:type rdf:resource="http://purl.org/dc/dcmitype/StillImage"/><dc:title/></cc:Work></rdf:RDF></metadata><defs id="defs837"><linearGradient inkscape:collect="always" id="linearGradient1303"><stop style="stop-color:#006a53;stop-opacity:1" offset="0" id="stop1299"/><stop style="stop-color:#95c11e;stop-opacity:1" offset="1" id="stop1301"/></linearGradient><linearGradient inkscape:collect="always" xlink:href="#linearGradient1303" id="linearGradient1305" x1="342.04977" y1="23.103764" x2="598.60742" y2="16.786283" gradientUnits="userSpaceOnUse"/></defs><sodipodi:namedview pagecolor="#ffffff" bordercolor="#666666" borderopacity="1" objecttolerance="10" gridtolerance="10" guidetolerance="10" inkscape:pageopacity="0" inkscape:pageshadow="2" inkscape:window-width="1920" inkscape:window-height="1080" id="namedview835" showgrid="false" inkscape:zoom="0.53090827" inkscape:cx="269.03233" inkscape:cy="228.47177" inkscape:window-x="0" inkscape:window-y="0" inkscape:window-maximized="0" inkscape:current-layer="g841"/><g id="g841" inkscape:groupmode="layer" inkscape:label="Logo Groupe Groupama" transform="matrix(1.3333333,0,0,-1.3333333,-318.56613,98.613336)"><g id="g1170" transform="translate(-2.0978749e-4,-6.4940444e-5)"><path id="path1154" style="fill:#006a53;fill-opacity:1;fill-rule:nonzero;stroke:none;stroke-width:1.33333" d="m 835.12695,1087.6562 c -6.75318,0 -11.90768,0.7522 -19.32422,2.0626 l 1.125,9.1015 c 5.44278,-0.8428 11.44507,-1.6914 17.35547,-1.6914 6.56831,0 10.13672,2.4422 10.13672,7.7871 v 0.5645 l -13.03906,0.75 c -13.60423,0.56 -20.08008,5.1606 -20.08008,13.9746 0,9.6621 6.10081,15.0117 17.26367,15.0117 5.7201,0 10.12971,-3e-4 25.89258,-2.3438 v -28.2343 c 0,-11.6359 -6.19345,-16.9824 -19.33008,-16.9825 z m 9.29297,25.8926 v 11.9141 c -6.10069,0.8428 -10.5118,1.0273 -13.23047,1.0273 -6.28557,0 -9.66211,-2.1577 -9.66211,-6.0019 0,-3.8442 3.00239,-5.8128 9.09766,-6.1934 z" transform="matrix(0.75000002,0,0,-0.75000002,0,751.18104)"/><path id="path1148" style="fill:#006a53;fill-opacity:1;fill-rule:nonzero;stroke:none;stroke-width:1.33333" d="m 693.19531,1087.6562 c -6.75862,0 -11.91898,0.7522 -19.33008,2.0626 l 1.12696,9.1015 c 5.44277,-0.8428 11.44507,-1.6914 17.35547,-1.6914 6.5683,0 10.1289,2.4422 10.1289,7.7871 v 0.5645 l -13.03906,0.75 c -13.59879,0.56 -20.07422,5.1606 -20.07422,13.9746 0,9.6621 6.10081,15.0117 17.26367,15.0117 5.7201,0 10.12971,-3e-4 25.89258,-2.3438 v -28.2343 c 0,-11.6359 -6.19303,-16.9824 -19.32422,-16.9825 z m 9.28125,25.8926 v 11.9141 c -6.09526,0.8428 -10.50397,1.0273 -13.22265,1.0273 -6.28556,0 -9.66211,-2.1577 -9.66211,-6.0019 0,-3.8442 3.00043,-5.8128 9.0957,-6.1934 z" transform="matrix(0.75000002,0,0,-0.75000002,0,751.18104)"/><path id="path1144" style="fill:#006a53;fill-opacity:1;fill-rule:nonzero;stroke:none;stroke-width:1.33333" d="m 638.0332,1088.0332 c -9.38485,0 -18.76361,1.2175 -24.29882,2.1582 v 65.291 h 10.7871 v -21.9512 c 6.00827,0.7504 9.66305,0.752 14.35547,0.752 12.85388,0 21.48243,-9.4786 21.48243,-22.8926 -0.27731,-14.0718 -8.06947,-23.3574 -22.32618,-23.3574 z m -1.5,9.0957 c 9.56428,0 13.22852,6.1927 13.22852,14.5391 0,7.6014 -4.88319,13.5117 -12.38672,13.5117 -3.56689,0 -6.75282,0.094 -12.85352,-0.9395 v -26.3613 c 3.65934,-0.4676 7.41172,-0.75 12.01172,-0.75 z" transform="matrix(0.75000002,0,0,-0.75000002,0,751.18104)"/><path id="path1138" style="fill:#006a53;fill-opacity:1;fill-rule:nonzero;stroke:none;stroke-width:1.33333" d="m 518.60742,1087.4668 c -14.8222,0 -24.85937,9.5695 -24.85937,23.8262 0,14.5449 10.03717,24.207 24.85937,24.207 14.72977,0 24.76758,-9.6621 24.76758,-24.207 0,-14.2567 -10.03781,-23.8262 -24.76758,-23.8262 z m 0,9.8516 c 8.2539,0 13.78906,5.5358 13.78906,13.9746 0,8.6345 -5.53516,14.3554 -13.78906,14.3554 -8.34632,0 -13.97851,-5.7209 -13.97851,-14.3554 0,-8.4388 5.63219,-13.9746 13.97851,-13.9746 z" transform="matrix(0.75000002,0,0,-0.75000002,0,751.18104)"/><path style="fill:#006a53;fill-opacity:1;fill-rule:nonzero;stroke:none;stroke-width:1" d="m 586.24182,-64.843151 c -4.85283,0 -10.69254,-0.913473 -14.14253,-2.177656 -2.38972,1.545565 -5.55833,2.177656 -9.28563,2.177656 -6.4718,0 -14.77462,-1.121452 -17.38047,-1.757621 v -32.575127 h 8.09077 v 26.454037 c 2.60585,0.350709 5.06897,0.493439 7.528,0.493439 5.20762,0 7.74006,-2.324464 7.74006,-7.740059 v -19.207417 h 8.16417 v 21.458477 c 0,1.688296 -0.21205,3.164535 -0.56276,4.432795 2.67109,0.774822 5.41559,1.056204 8.09077,1.056204 5.20761,0 7.74006,-2.605847 7.74006,-7.882789 v -19.064687 h 8.09076 v 21.389151 c 0,9.285624 -5.62765,12.943597 -14.0732,12.943597" id="path1152"/><path style="fill:#006a53;fill-opacity:1;fill-rule:nonzero;stroke:none;stroke-width:1" d="m 449.0454,-65.895277 h -8.16009 v -26.739497 c -3.16862,-0.420035 -6.33723,-0.632092 -9.22038,-0.632092 -5.06489,0 -7.59733,2.605847 -7.59733,7.878712 v 19.492877 h -8.16417 v -21.393229 c 0,-9.285624 5.70105,-12.943594 14.00388,-12.943594 6.4718,0 15.48012,0.982797 19.13809,1.757618 z" id="path1142"/><path style="fill:#006a53;fill-opacity:1;fill-rule:nonzero;stroke:none;stroke-width:1" d="m 365.94783,-64.843151 c -6.32907,0 -14.70122,-0.9828 -20.4716,-2.039004 v -32.293744 h 8.09077 v 25.891272 c 4.08209,0.350709 8.09077,0.493439 12.38083,0.493439 z" id="path1136"/><path style="fill:#006a53;fill-opacity:1;fill-rule:nonzero;stroke:none;stroke-width:1" d="m 334.64097,-71.665658 h -25.25919 v -7.809385 h 17.23774 v -10.415232 c -4.43279,-1.268261 -9.84839,-2.10833 -14.0732,-2.10833 -9.99112,0 -16.67498,6.753181 -16.67498,16.956357 0,9.917715 7.38935,16.605648 18.506,16.605648 2.81383,0 7.59733,-0.636169 14.14254,-1.831026 l 1.68829,7.878712 c -5.83971,1.480316 -11.82214,2.112408 -16.46292,2.112408 -16.04288,0 -26.73542,-9.921794 -26.73542,-24.765742 0,-15.12941 10.1991,-25.189852 25.53649,-25.189852 6.96931,0 14.42391,1.900349 22.09465,5.207613 z" id="path937"/></g><g id="g1205" transform="translate(-2.0978749e-4,-6.4940444e-5)"><path id="path1188" style="fill:#006a53;fill-opacity:1;fill-rule:nonzero;stroke:none;stroke-width:1.33333" d="m 752.5625,1051.7695 c -2.64255,0 -5.25693,0.1417 -7.13281,0.2559 v 19.3418 h 4.08789 v -5.6875 h 3.04492 c 4.83923,0 8.16797,-2.7897 8.16797,-7.0254 0,-4.2683 -3.32874,-6.8848 -8.16797,-6.8848 z m 0.37109,3.752 c 2.16407,0 3.78907,1.1103 3.78907,3.1601 0,2.0499 -1.625,3.3262 -3.78907,3.3262 h -3.41601 v -6.4258 c 1.08204,-0.06 2.25243,-0.061 3.41601,-0.061 z" transform="matrix(0.75000002,0,0,-0.75000002,0,751.18104)"/><path id="path1182" style="fill:#006a53;fill-opacity:1;fill-rule:nonzero;stroke:none;stroke-width:1.33333" d="m 665.17969,1051.6016 c -6.0572,0 -10.35352,4.0346 -10.35352,10.0918 0,6.0626 4.29632,10.0976 10.35352,10.0976 6.06264,0 10.35351,-4.035 10.35351,-10.0976 0,-6.0572 -4.29087,-10.0918 -10.35351,-10.0918 z m 0,3.8652 c 3.50165,0 6.0625,2.4748 6.0625,6.2266 0,3.7572 -2.56085,6.2636 -6.0625,6.2636 -3.49622,0 -6.05664,-2.5064 -6.05664,-6.2636 0,-3.7518 2.56042,-6.2266 6.05664,-6.2266 z" transform="matrix(0.75000002,0,0,-0.75000002,0,751.18104)"/><path id="path1178" style="fill:#006a53;fill-opacity:1;fill-rule:nonzero;stroke:none;stroke-width:1.33333" d="m 621.63281,1051.8574 c -2.56098,0 -5.94308,0.1136 -7.44922,0.168 v 19.3418 h 4.08789 v -5.916 h 2.2793 1.31055 l 3.97851,5.916 h 4.94922 l -4.88867,-6.9121 c 2.24563,-1.1962 3.63672,-3.2677 3.63672,-5.8613 0,-4.3825 -3.15206,-6.7364 -7.9043,-6.7364 z m 0.0527,3.6641 c 2.30542,0 3.81836,0.9408 3.81836,3.0723 0,1.9356 -1.51205,3.2734 -3.5293,3.2734 h -3.70313 v -6.3184 c 1.16903,-0.027 2.36465,-0.027 3.41407,-0.027 z" transform="matrix(0.75000002,0,0,-0.75000002,0,751.18104)"/><path style="fill:#006a53;fill-opacity:1;fill-rule:nonzero;stroke:none;stroke-width:1" d="m 592.47505,-43.706428 v 3.074818 h 7.66258 v 2.793436 h -10.72924 v -14.505475 h 10.72924 v 2.793436 h -7.66258 v 3.074818 h 6.74503 v 2.768967 z" id="path1192"/><path style="fill:#006a53;fill-opacity:1;fill-rule:nonzero;stroke:none;stroke-width:1" d="m 539.2285,-37.838174 h -3.09113 v -8.12747 c 0,-2.410103 -1.43138,-3.821094 -3.56417,-3.821094 -2.15727,0 -3.56418,1.410991 -3.56418,3.821094 v 8.12747 h -3.07074 v -8.12747 c 0,-4.184036 2.62216,-6.696089 6.63492,-6.696089 4.01276,0 6.6553,2.512053 6.6553,6.696089 z" id="path1186"/><path style="fill:#006a53;fill-opacity:1;fill-rule:nonzero;stroke:none;stroke-width:1" d="m 440.79355,-43.832846 h -7.76453 v -2.748577 h 4.93031 v -2.565067 c -1.19485,-0.297695 -2.69148,-0.554609 -3.88634,-0.554609 -2.73226,0 -4.56737,1.879961 -4.56737,4.673397 0,2.732265 2.07163,4.567368 5.16684,4.567368 0.81152,0 2.17358,-0.191666 4.24521,-0.534219 l 0.575,2.838294 c -1.79025,0.444503 -3.60496,0.636169 -5.07712,0.636169 -4.88546,0 -8.12747,-3.005492 -8.12747,-7.507612 0,-4.587759 3.09113,-7.634031 7.76452,-7.634031 2.07163,0 4.31046,0.574999 6.74095,1.574111 z" id="path1176"/><path style="fill:#006a53;fill-opacity:1;fill-rule:nonzero;stroke:none;stroke-width:1" d="m 378.26138,-43.706428 v 3.074818 h 7.66257 v 2.793436 h -10.72924 v -14.505475 h 10.72924 v 2.793436 h -7.66257 v 3.074818 h 6.74094 v 2.768967 z" id="path1174"/><path style="fill:#006a53;fill-opacity:1;fill-rule:nonzero;stroke:none;stroke-width:1" d="m 355.92613,-52.343649 v 2.748578 h -7.3812 v 11.756897 h -3.07074 v -14.505475 z" id="path939"/></g><g id="g1132" transform="translate(-2.0978749e-4,-6.4940444e-5)"><path id="path1083" style="fill:#006a53;fill-opacity:1;fill-rule:nonzero;stroke:none;stroke-width:1.33333" d="m 845.56445,1173.4297 -8.85156,19.5976 h 3.06055 l 1.91992,-4.3828 h 10.31445 l 1.91797,4.3828 h 3.06836 l -8.85352,-19.5976 z m 1.28907,3.5234 4.0664,9.2559 h -8.13476 z" transform="matrix(0.75000002,0,0,-0.75000002,0,751.18104)"/><path id="path1073" style="fill:#006a53;fill-opacity:1;fill-rule:nonzero;stroke:none;stroke-width:1.33333" d="m 774.75977,1173.1152 c -6.07351,0 -10.31446,4.0673 -10.31446,10.168 0,6.1061 4.24095,10.1738 10.31446,10.1738 6.07352,0 10.31445,-4.0677 10.31445,-10.1738 0,-6.1007 -4.24093,-10.168 -10.31445,-10.168 z m 0,2.5782 c 4.35532,0 7.44921,3.0387 7.44921,7.5898 0,4.5619 -3.09389,7.623 -7.44921,7.623 -4.35531,0 -7.44922,-3.0611 -7.44922,-7.623 0,-4.5511 3.09391,-7.5898 7.44922,-7.5898 z" transform="matrix(0.75000002,0,0,-0.75000002,0,751.18104)"/><path id="path1065" style="fill:#006a53;fill-opacity:1;fill-rule:nonzero;stroke:none;stroke-width:1.33333" d="m 703.9375,1173.3164 c -2.32175,0 -5.16088,0.1415 -6.70508,0.2285 v 19.4824 c 1.5442,0.087 4.58391,0.2286 7.07422,0.2286 5.67659,0 9.88672,-3.9542 9.88672,-10.0821 0,-6.0191 -4.20953,-9.8574 -10.25586,-9.8574 z m 0,2.5234 c 4.38249,0 7.38867,2.8319 7.38867,7.334 0,4.6381 -3.00678,7.5313 -7.01953,7.5313 -1.37021,0 -2.94678,-0.028 -4.34961,-0.082 v -14.6699 c 1.28865,-0.06 2.719,-0.1133 3.98047,-0.1133 z" transform="matrix(0.75000002,0,0,-0.75000002,0,751.18104)"/><path id="path1059" style="fill:#006a53;fill-opacity:1;fill-rule:nonzero;stroke:none;stroke-width:1.33333" d="m 657.27344,1173.377 c -2.34894,0 -5.07265,0.081 -6.76367,0.1679 v 19.4824 h 2.72461 v -6.6777 h 3.32226 c 0.48936,0 1.00072,-10e-5 1.46289,-0.027 l 4.8125,6.705 h 3.29492 l -5.38867,-7.3632 c 2.60992,-0.9733 4.21289,-3.066 4.21289,-5.9043 0,-4.1814 -3.09405,-6.3828 -7.67773,-6.3828 z m 0.0879,2.4628 c 2.91986,0 4.89453,1.2285 4.89453,3.92 0,2.5827 -1.9751,4.1601 -4.69922,4.1601 h -4.32226 v -7.998 c 1.48982,-0.054 2.75131,-0.082 4.12695,-0.082 z" transform="matrix(0.75000002,0,0,-0.75000002,0,751.18104)"/><path id="path1049" style="fill:#006a53;fill-opacity:1;fill-rule:nonzero;stroke:none;stroke-width:1.33333" d="m 577.8125,1173.4297 -8.85742,19.5976 h 3.0664 l 1.91993,-4.3828 h 10.31445 l 1.91992,4.3828 h 3.06641 l -8.85157,-19.5976 z m 1.28906,3.5234 4.06641,9.2559 h -8.13867 z" transform="matrix(0.75000002,0,0,-0.75000002,0,751.18104)"/><path id="path1041" style="fill:#006a53;fill-opacity:1;fill-rule:nonzero;stroke:none;stroke-width:1.33333" d="m 538.96289,1173.377 c -2.34893,0 -5.0668,0.081 -6.75781,0.1679 v 19.4824 h 2.71875 v -6.6777 h 3.32226 c 0.48936,0 1.00616,-10e-5 1.46289,-0.027 l 4.81055,6.705 h 3.29492 l -5.38281,-7.3632 c 2.60449,-0.9733 4.20898,-3.066 4.20898,-5.9043 0,-4.1814 -3.09405,-6.3828 -7.67773,-6.3828 z m 0.0879,2.4628 c 2.92529,0 4.89844,1.2285 4.89844,3.92 0,2.5827 -1.97316,4.1601 -4.69727,4.1601 h -4.32812 v -7.998 c 1.48984,-0.054 2.75131,-0.082 4.12695,-0.082 z" transform="matrix(0.75000002,0,0,-0.75000002,0,751.18104)"/><path id="path1033" style="fill:#006a53;fill-opacity:1;fill-rule:nonzero;stroke:none;stroke-width:1.33333" d="m 471.1543,1173.377 c -2.34894,0 -5.07418,0.081 -6.75977,0.1679 v 19.4824 h 2.71875 v -6.6777 h 3.32227 c 0.48936,0 1.00615,-10e-5 1.46289,-0.027 l 4.8125,6.705 h 3.29492 l -5.38281,-7.3632 c 2.60448,-0.9733 4.20898,-3.066 4.20898,-5.9043 0,-4.1814 -3.09405,-6.3828 -7.67773,-6.3828 z m 0.0859,2.4628 c 2.91986,0 4.90039,1.2285 4.90039,3.92 0,2.5827 -1.98055,4.1601 -4.69921,4.1601 h -4.32813 v -7.998 c 1.48983,-0.054 2.75131,-0.082 4.12695,-0.082 z" transform="matrix(0.75000002,0,0,-0.75000002,0,751.18104)"/><path id="path1025" style="fill:#006a53;fill-opacity:1;fill-rule:nonzero;stroke:none;stroke-width:1.33333" d="m 411.00586,1173.377 c -2.34893,0 -5.07266,0.081 -6.76367,0.1679 v 19.4824 h 2.72461 v -6.6777 h 3.32226 c 0.48936,0 1.00072,-10e-5 1.46289,-0.027 l 4.81055,6.705 h 3.29492 l -5.38672,-7.3632 c 2.60994,-0.9733 4.21289,-3.066 4.21289,-5.9043 0,-4.1814 -3.09405,-6.3828 -7.67773,-6.3828 z m 0.0879,2.4628 c 2.91985,0 4.89844,1.2285 4.89844,3.92 0,2.5827 -1.97902,4.1601 -4.70313,4.1601 h -4.32226 v -7.998 c 1.48984,-0.054 2.75131,-0.082 4.12695,-0.082 z" transform="matrix(0.75000002,0,0,-0.75000002,0,751.18104)"/><path id="path941" style="fill:#006a53;fill-opacity:1;fill-rule:nonzero;stroke:none;stroke-width:1.33333" d="m 327.41797,1173.4297 -8.85156,19.5976 h 3.0664 l 1.91992,-4.3828 h 10.31446 l 1.91797,4.3828 h 3.06836 L 330,1173.4297 Z m 1.28906,3.5234 4.07227,9.2559 h -8.14063 z" transform="matrix(0.75000002,0,0,-0.75000002,0,751.18104)"/><path style="fill:#006a53;fill-opacity:1;fill-rule:nonzero;stroke:none;stroke-width:1" d="m 680.60937,-135.33928 v 4.4695 h 8.31506 v 1.8922 h -10.35814 v -14.61151 h 10.35814 v 1.8922 h -8.31506 v 4.4695 h 7.41382 v 1.88811 z" id="path1091"/><path style="fill:#006a53;fill-opacity:1;fill-rule:nonzero;stroke:none;stroke-width:1" d="m 675.16931,-129.3446 c -1.59043,0.43227 -3.28688,0.68918 -5.04858,0.68918 -4.89769,0 -8.05814,-3.05035 -8.05814,-7.60956 0,-4.59592 3.16045,-7.64627 7.99289,-7.64627 1.63529,0 3.50301,0.30177 5.2851,0.86046 l -0.38741,1.78209 c -1.86773,-0.47305 -3.58865,-0.72996 -4.81205,-0.72996 -3.56825,0 -5.90903,2.29592 -5.90903,5.73368 0,3.29095 2.1695,5.63173 6.16595,5.63173 1.26826,0 2.66701,-0.21614 4.38386,-0.64433 z" id="path1089"/><path style="fill:#006a53;fill-opacity:1;fill-rule:nonzero;stroke:none;stroke-width:1" d="M 658.44947,-128.97758 H 656.386 v -11.23899 l -8.78811,11.23899 h -1.93297 v -14.61151 h 2.039 v 11.17375 l 8.74733,-11.17375 h 1.99822 z" id="path1087"/><path style="fill:#006a53;fill-opacity:1;fill-rule:nonzero;stroke:none;stroke-width:1" d="m 624.67133,-128.97758 h -2.04308 v -14.61151 h 2.04308 z" id="path1081"/><path style="fill:#006a53;fill-opacity:1;fill-rule:nonzero;stroke:none;stroke-width:1" d="m 611.61355,-135.89796 v 5.02818 h 8.05815 v 1.8922 h -10.10123 v -14.61151 h 2.04308 v 5.80301 h 7.15283 v 1.88812 z" id="path1079"/><path style="fill:#006a53;fill-opacity:1;fill-rule:nonzero;stroke:none;stroke-width:1" d="m 605.22331,-128.97758 h -2.05939 v -11.23899 l -8.79218,11.23899 h -1.93298 v -14.61151 h 2.04308 v 11.17375 l 8.74325,-11.17375 h 1.99822 z" id="path1077"/><path style="fill:#006a53;fill-opacity:1;fill-rule:nonzero;stroke:none;stroke-width:1" d="m 571.13525,-129.3446 c -1.59043,0.43227 -3.28688,0.68918 -5.04858,0.68918 -4.90176,0 -8.05814,-3.05035 -8.05814,-7.60956 0,-4.59592 3.15638,-7.64627 7.99289,-7.64627 1.63121,0 3.50301,0.30177 5.2851,0.86046 l -0.38333,1.78209 c -1.87181,-0.47305 -3.59273,-0.72996 -4.81613,-0.72996 -3.56825,0 -5.90903,2.29592 -5.90903,5.73368 0,3.29095 2.1695,5.63173 6.16595,5.63173 1.26826,0 2.66701,-0.21614 4.38386,-0.64433 z" id="path1071"/><path style="fill:#006a53;fill-opacity:1;fill-rule:nonzero;stroke:none;stroke-width:1" d="m 541.31277,-135.33928 v 4.4695 h 8.31506 v 1.8922 h -10.35814 v -14.61151 h 10.35814 v 1.8922 h -8.31506 v 4.4695 h 7.41382 v 1.88811 z" id="path1069"/><path style="fill:#006a53;fill-opacity:1;fill-rule:nonzero;stroke:none;stroke-width:1" d="m 513.21122,-129.66268 c -1.32943,0.46897 -3.47854,0.92163 -5.43598,0.92163 -3.20124,0 -5.34627,-1.6312 -5.34627,-4.23297 0,-2.3 1.30904,-3.29095 4.55106,-3.95567 2.25921,-0.44858 4.59999,-0.77482 4.59999,-2.72819 0,-1.54556 -1.41915,-2.34077 -3.48262,-2.34077 -1.59042,0 -3.62943,0.38741 -5.66843,1.2234 l -0.51791,-1.91259 c 2.01862,-0.8156 4.29822,-1.2234 6.1007,-1.2234 3.28688,0 5.63173,1.50479 5.63173,4.44911 0,2.76897 -2.10833,3.58865 -5.32996,4.25336 -2.49166,0.51791 -3.71914,0.92571 -3.71914,2.3 0,1.50478 1.22748,2.29999 3.1156,2.29999 1.3539,0 3.24609,-0.34663 4.96701,-0.86046 z" id="path1063"/><path style="fill:#006a53;fill-opacity:1;fill-rule:nonzero;stroke:none;stroke-width:1" d="m 483.68644,-128.97757 h -2.039 v -8.55159 c 0,-2.77304 -1.7617,-4.46949 -4.38386,-4.46949 -2.60177,0 -4.34308,1.69645 -4.34308,4.46949 v 8.55159 h -2.039 v -8.55159 c 0,-3.9312 2.55691,-6.38208 6.38208,-6.38208 3.86595,0 6.42286,2.45088 6.42286,6.38208 z" id="path1057"/><path style="fill:#006a53;fill-opacity:1;fill-rule:nonzero;stroke:none;stroke-width:1" d="m 459.43453,-135.33927 v 4.4695 h 8.31506 v 1.8922 h -10.35814 v -14.61151 h 10.35814 v 1.8922 h -8.31506 v 4.4695 h 7.41382 v 1.88811 z" id="path1055"/><path style="fill:#006a53;fill-opacity:1;fill-rule:nonzero;stroke:none;stroke-width:1" d="m 448.95405,-130.86977 h 5.54201 v 1.8922 h -13.15157 v -1.8922 h 5.56648 v -12.71931 h 2.04308 z" id="path1053"/><path style="fill:#006a53;fill-opacity:1;fill-rule:nonzero;stroke:none;stroke-width:1" d="m 415.80393,-135.33927 v 4.4695 h 8.33952 v 1.8922 h -10.37853 v -14.61151 h 10.37853 v 1.8922 h -8.33952 v 4.4695 h 7.4342 v 1.88811 z" id="path1047"/><path style="fill:#006a53;fill-opacity:1;fill-rule:nonzero;stroke:none;stroke-width:1" d="m 422.50817,-124.38166 h -2.64255 l -1.86773,-3.18084 h 2.08387 z" id="path1045"/><path style="fill:#006a53;fill-opacity:1;fill-rule:nonzero;stroke:none;stroke-width:1" d="m 395.75644,-129.34459 c -1.59042,0.43227 -3.28688,0.68918 -5.04858,0.68918 -4.90176,0 -8.05814,-3.05035 -8.05814,-7.60956 0,-4.59592 3.15638,-7.64627 7.9929,-7.64627 1.6312,0 3.50301,0.30177 5.28509,0.86046 l -0.38741,1.78209 c -1.86772,-0.47305 -3.58864,-0.72996 -4.81205,-0.72996 -3.56825,0 -5.90903,2.29592 -5.90903,5.73368 0,3.29095 2.1695,5.63173 6.16595,5.63173 1.26826,0 2.66294,-0.21614 4.38386,-0.64433 z" id="path1039"/><path style="fill:#006a53;fill-opacity:1;fill-rule:nonzero;stroke:none;stroke-width:1" d="m 373.62509,-129.66268 c -1.33351,0.46897 -3.48262,0.92163 -5.43598,0.92163 -3.20532,0 -5.35035,-1.6312 -5.35035,-4.23297 0,-2.3 1.30904,-3.29095 4.55513,-3.95567 2.25514,-0.44858 4.59592,-0.77482 4.59592,-2.72819 0,-1.54556 -1.41507,-2.34077 -3.47854,-2.34077 -1.59043,0 -3.63351,0.38741 -5.67251,1.2234 l -0.51791,-1.91259 c 2.01862,-0.8156 4.29822,-1.2234 6.10478,-1.2234 3.28687,0 5.62765,1.50479 5.62765,4.44911 0,2.76897 -2.10425,3.58865 -5.32996,4.25336 -2.49166,0.51791 -3.71506,0.92571 -3.71506,2.3 0,1.50478 1.2234,2.29999 3.1156,2.29999 1.3539,0 3.24201,-0.34663 4.96293,-0.86046 z" id="path1037"/><path style="fill:#006a53;fill-opacity:1;fill-rule:nonzero;stroke:none;stroke-width:1" d="m 344.10031,-128.97757 h -2.04308 v -8.55159 c 0,-2.77304 -1.7617,-4.46949 -4.38386,-4.46949 -2.59769,0 -4.339,1.69645 -4.339,4.46949 v 8.55159 h -2.04308 v -8.55159 c 0,-3.9312 2.55691,-6.38208 6.38208,-6.38208 3.87003,0 6.42694,2.45088 6.42694,6.38208 z" id="path1031"/><path style="fill:#006a53;fill-opacity:1;fill-rule:nonzero;stroke:none;stroke-width:1" d="m 319.84432,-135.33927 v 4.4695 h 8.31914 v 1.8922 h -10.35814 v -14.61151 h 10.35814 v 1.8922 h -8.31914 v 4.4695 h 7.41382 v 1.88811 z" id="path1029"/><path style="fill:#006a53;fill-opacity:1;fill-rule:nonzero;stroke:none;stroke-width:1" d="m 298.98531,-128.97757 h -2.039 v -8.55159 c 0,-2.77304 -1.7617,-4.46949 -4.38386,-4.46949 -2.60177,0 -4.34308,1.69645 -4.34308,4.46949 v 8.55159 h -2.039 v -8.55159 c 0,-3.9312 2.55691,-6.38208 6.38208,-6.38208 3.86595,0 6.42286,2.45088 6.42286,6.38208 z" id="path1023"/><path style="fill:#006a53;fill-opacity:1;fill-rule:nonzero;stroke:none;stroke-width:1" d="m 282.35927,-129.66268 c -1.33351,0.46897 -3.47854,0.92163 -5.43598,0.92163 -3.20124,0 -5.35035,-1.6312 -5.35035,-4.23297 0,-2.3 1.30904,-3.29095 4.55514,-3.95567 2.25514,-0.44858 4.59999,-0.77482 4.59999,-2.72819 0,-1.54556 -1.41915,-2.34077 -3.48262,-2.34077 -1.59042,0 -3.62943,0.38741 -5.67251,1.2234 l -0.51383,-1.91259 c 2.01862,-0.8156 4.29415,-1.2234 6.1007,-1.2234 3.28688,0 5.62765,1.50479 5.62765,4.44911 0,2.76897 -2.10425,3.58865 -5.32587,4.25336 -2.49575,0.51791 -3.71915,0.92571 -3.71915,2.3 0,1.50478 1.2234,2.29999 3.1156,2.29999 1.3539,0 3.24609,-0.34663 4.96294,-0.86046 z" id="path1021"/><path style="fill:#006a53;fill-opacity:1;fill-rule:nonzero;stroke:none;stroke-width:1" d="m 267.89458,-129.66268 c -1.32943,0.46897 -3.47854,0.92163 -5.43599,0.92163 -3.20123,0 -5.35034,-1.6312 -5.35034,-4.23297 0,-2.3 1.31312,-3.29095 4.55513,-3.95567 2.25922,-0.44858 4.6,-0.77482 4.6,-2.72819 0,-1.54556 -1.41915,-2.34077 -3.48262,-2.34077 -1.58635,0 -3.62943,0.38741 -5.67251,1.2234 l -0.51383,-1.91259 c 2.01861,-0.8156 4.29822,-1.2234 6.1007,-1.2234 3.29095,0 5.63173,1.50479 5.63173,4.44911 0,2.76897 -2.10833,3.58865 -5.32996,4.25336 -2.49166,0.51791 -3.71506,0.92571 -3.71506,2.3 0,1.50478 1.2234,2.29999 3.11559,2.29999 1.34982,0 3.24202,-0.34663 4.96294,-0.86046 z" id="path1019"/></g><path d="m 480.32475,72.777381 -3.66613,-58.026025 c 4.01276,-0.08972 8.07038,-0.391489 12.0179,-0.954255 v 0 l 27.29004,59.290209 c -5.65211,0.566844 -11.53669,0.872694 -17.68633,0.872694 v 0 c -6.064,0 -12.05052,-0.428191 -17.95548,-1.182623 M 424.17868,54.764804 449.00561,12.292315 c 3.87004,0.750354 7.76454,1.345743 11.62641,1.7617 v 0 l -8.97161,52.231171 C 442.1097,63.185898 432.90971,59.279163 424.17868,54.764804 M 506.25682,8.8300829 c 4.07394,-1.9696795 7.56063,-4.5143587 10.14609,-7.7359878 v 0 l 67.82957,41.4244399 c -8.81258,10.003363 -20.80194,17.988109 -35.67037,23.407787 v 0 z M 376.46595,20.954011 415.63526,1.5916126 c 4.72641,2.2062042 9.81984,4.2044297 15.12126,5.9498187 v 0 L 400.95033,40.711977 C 392.01948,34.497087 383.8023,27.80507 376.46595,20.954011 m 144.70824,-32.179589 c 0.12642,-1.696452 0.10603,-3.486699 -0.0979,-5.387053 v 0 h 80.25526 c 1.37429,11.973042 0.39965,23.1916516 -2.72411,33.398915 v 0 z m -175.69705,-5.387053 h 44.67054 c 2.42641,3.144147 5.75815,6.218968 9.77091,9.138824 v 0 L 361.65462,5.6451559 C 354.9422,-2.0949099 349.4736,-9.6800111 345.47714,-16.612631" id="path1217" style="stroke-width:1;fill-opacity:1;fill:url(#linearGradient1305)"/></g></svg>