<svg xmlns="http://www.w3.org/2000/svg" id="Calque_2" data-name="Calque 2"
    viewBox="0 0 384.16 111.64">
    <defs>
        <style>.cls-1{fill:#878686;}.cls-2{fill:#2a2c3a;}</style>
    </defs>
    <title>LFG_logo_2012(1)</title>
    <path class="cls-1"
        d="M94.13,130.11h11.19v2.1H96.6v5.56h8.3v2.07H96.6v5.92h8.91v2.17H94.13ZM99.22,125l2.07,3.55H99.76L96.43,125Z"
        transform="translate(-37.13 -36.71)" />
    <polygon class="cls-1"
        points="0 93.4 10.61 93.4 10.61 95.5 2.52 95.5 2.52 101.06 10.14 101.06 10.14 103.13 2.52 103.13 2.52 111.22 0 111.22 0 93.4" />
    <path class="cls-1"
        d="M64.28,130.11h6.36a7.91,7.91,0,0,1,4.1.84,4.18,4.18,0,0,1,2,3.63,4.32,4.32,0,0,1-3.36,4.32c1.7.45,2.47,1.21,2.72,3.43a23.37,23.37,0,0,0,1.11,5.6H74.54a30.81,30.81,0,0,1-.81-4.71c-.3-2.59-.91-3.33-3.9-3.33H66.72v8H64.28Zm2.39,7.68h3.9a5.86,5.86,0,0,0,2.35-.39,2.55,2.55,0,0,0,1.2-2.32c0-2.89-2.56-2.89-3.55-2.89h-3.9Z"
        transform="translate(-37.13 -36.71)" />
    <path class="cls-1"
        d="M123.1,130.11h6.37a7.91,7.91,0,0,1,4.1.84,4.19,4.19,0,0,1,2,3.63,4.3,4.3,0,0,1-3.35,4.32c1.7.45,2.47,1.21,2.71,3.43a23.86,23.86,0,0,0,1.11,5.6h-2.64a30.81,30.81,0,0,1-.81-4.71c-.3-2.59-.92-3.33-3.9-3.33h-3.11v8H123.1Zm2.4,7.68h3.9a5.8,5.8,0,0,0,2.34-.39,2.53,2.53,0,0,0,1.21-2.32c0-2.89-2.56-2.89-3.55-2.89h-3.9Z"
        transform="translate(-37.13 -36.71)" />
    <polygon class="cls-1"
        points="115.83 93.4 127.01 93.4 127.01 95.5 118.3 95.5 118.3 101.06 126.59 101.06 126.59 103.13 118.3 103.13 118.3 109.05 127.21 109.05 127.21 111.22 115.83 111.22 115.83 93.4" />
    <path class="cls-1"
        d="M183.76,142.73c.05,1.23.2,3.53,4.29,3.53,3.71,0,4.18-2.3,4.18-3.19,0-2-1.61-2.39-4.1-3-2.72-.67-3.93-1-4.84-1.58a4,4,0,0,1-1.85-3.5c0-3.63,3.43-5.21,6.79-5.21,1.18,0,3.58.19,5,1.75a4.56,4.56,0,0,1,1.08,3h-2.56c-.13-2.22-2-2.72-3.75-2.72-2.47,0-3.95,1.11-3.95,2.89,0,1.58,1,2.12,3.2,2.64,4.25,1.09,4.72,1.19,5.76,1.88a4.07,4.07,0,0,1,1.77,3.55c0,3.16-2.47,5.55-7,5.55-1.36,0-4.12-.22-5.53-2a5.59,5.59,0,0,1-1-3.6Z"
        transform="translate(-37.13 -36.71)" />
    <path class="cls-1"
        d="M244.66,134.56c-.27-1.66-1.6-2.79-4-2.79a5.11,5.11,0,0,0-4,1.5,8.53,8.53,0,0,0-1.9,5.73c0,1.5.32,4.05,1.63,5.6a6.06,6.06,0,0,0,4.73,1.76,12.57,12.57,0,0,0,3.88-.57V140.5h-4.07v-2h6.54v8.78a19.39,19.39,0,0,1-6.35,1.09c-3.28,0-5.2-.94-6.46-2.22a9.55,9.55,0,0,1-2.5-6.79c0-1.78.45-6,3.83-8.24a9.22,9.22,0,0,1,5-1.26,7,7,0,0,1,5.26,1.9,4,4,0,0,1,1.18,2.84Z"
        transform="translate(-37.13 -36.71)" />
    <polygon class="cls-1"
        points="228.01 93.4 239.19 93.4 239.19 95.5 230.48 95.5 230.48 101.06 238.77 101.06 238.77 103.13 230.48 103.13 230.48 109.05 239.39 109.05 239.39 111.22 228.01 111.22 228.01 93.4" />
    <path class="cls-1"
        d="M295.94,142.73c.05,1.23.2,3.53,4.29,3.53,3.71,0,4.17-2.3,4.17-3.19,0-2-1.6-2.39-4.09-3-2.72-.67-3.93-1-4.84-1.58a4,4,0,0,1-1.85-3.5c0-3.63,3.43-5.21,6.79-5.21,1.18,0,3.57.19,5,1.75a4.62,4.62,0,0,1,1.08,3h-2.56c-.13-2.22-2-2.72-3.76-2.72-2.46,0-3.95,1.11-3.95,2.89,0,1.58,1,2.12,3.21,2.64,4.25,1.09,4.72,1.19,5.75,1.88A4.06,4.06,0,0,1,307,142.8c0,3.16-2.47,5.55-7,5.55-1.36,0-4.12-.22-5.53-2a5.59,5.59,0,0,1-1-3.6Z"
        transform="translate(-37.13 -36.71)" />
    <polygon class="cls-1"
        points="290.96 111.22 290.96 95.5 284.99 95.5 284.99 93.4 299.38 93.4 299.38 95.5 293.4 95.5 293.4 111.22 290.96 111.22" />
    <rect class="cls-1" x="315.36" y="93.4" width="2.47" height="17.82" />
    <path class="cls-1"
        d="M374.58,132a8,8,0,0,1,5.95-2.4c4.94,0,8.05,3.16,8.05,9.21,0,4.74-1.9,9.5-8.25,9.5-6.07,0-8-4.31-8-9.2,0-2,.34-5,2.29-7.11m1.88,12.59a4.87,4.87,0,0,0,4,1.63,5,5,0,0,0,3.95-1.63c1.45-1.78,1.6-4.59,1.6-5.8,0-4.05-1.33-7.11-5.4-7.11-4.52,0-5.68,3.63-5.68,7.28a9,9,0,0,0,1.58,5.63"
        transform="translate(-37.13 -36.71)" />
    <polygon class="cls-1"
        points="368.89 93.4 372.32 93.4 381.08 108.14 381.08 93.4 383.35 93.4 383.35 111.22 380.19 111.22 371.13 96.09 371.13 111.22 368.89 111.22 368.89 93.4" />
    <path class="cls-2"
        d="M219.06,46.79a3.45,3.45,0,0,1,.85.1c.37.1.51.27.51.55a1.29,1.29,0,0,1-.36,1c-13,18.86-26.13,37.87-39.77,56.73l21-.14c9.42,0,12.29-1.56,14.17-4a12.27,12.27,0,0,0,1.8-4.43,2.49,2.49,0,0,1,.81-1.31l.9,0s-1.44,9.25-2,11.3-.66,2.19-2.72,2.19h-43c-1.08,0-1.38-.55-1.38-1.13,0-.41.17-.82,1.25-2.29,9.89-13.65,21-27.3,31.2-41q4.63-6.54,9.36-13.09l.79-1.17-22.31.21a47.39,47.39,0,0,0-6.56.43,14.57,14.57,0,0,0-4,1.14c-3.22,1.59-5.06,6.53-5.06,6.53l-1,1.48a1.49,1.49,0,0,1-.55-1.06c0-1,1.27-8.46,1.7-10.92a2.16,2.16,0,0,1,.88-1.57,8.46,8.46,0,0,0,3,.38h.08c5.53,0,10.78,0,16,0h0Z"
        transform="translate(-37.13 -36.71)" />
    <path class="cls-2"
        d="M120.84,80.45l8.65-24.9,8.78,24.9Zm39,26.6c-1.74-.49-4.11-1.8-7-8.76h0L130.75,44.86c-.31-.58-.64.36-.64.36L109.42,99.35c-1.54,4.28-3.25,7.53-7.18,8.05-.69.08-3.24.18-3.24.18v.49a2,2,0,0,0,1.62.69H117a1.78,1.78,0,0,0,1.28-.69v-.36l-1.71-.14c-1.45,0-3.25-.78-3.25-2.49a18,18,0,0,1,1.2-5.72L120,83.44l19.35.08,8.24,21.56c.51,1.38,0,2.15-.51,2.32-.34.08-.6.25-.6.59,0,.52.91.78,2.54.77,5.85,0,12.17,0,13.46,0a2.9,2.9,0,0,0,1.71-.69l-.09-.4a23.78,23.78,0,0,1-4.19-.62"
        transform="translate(-37.13 -36.71)" />
    <path class="cls-2"
        d="M245.77,80.45l8.65-24.9,8.78,24.9Zm39.06,26.6c-1.74-.49-4.12-1.8-7.05-8.76h0L255.69,44.86c-.31-.58-.65.36-.65.36L234.36,99.35c-1.54,4.28-3.25,7.53-7.18,8.05-.69.08-3.24.18-3.24.18l0,.49a2.05,2.05,0,0,0,1.63.69h16.33a1.78,1.78,0,0,0,1.28-.69v-.36l-1.71-.14c-1.45,0-3.25-.78-3.25-2.49a18,18,0,0,1,1.2-5.72l5.51-15.92,19.36.08,8.23,21.56c.52,1.38,0,2.15-.51,2.32-.34.08-.6.25-.6.59,0,.52.92.78,2.54.77,5.86,0,12.18,0,13.46,0a2.9,2.9,0,0,0,1.71-.69l-.09-.4a23.71,23.71,0,0,1-4.18-.62"
        transform="translate(-37.13 -36.71)" />
    <path class="cls-2"
        d="M39.06,108.74a1.62,1.62,0,0,1-1.35-.89l.09-.38s2.32-.28,3.06-.45c1.67-.33,2.83-2.26,3.17-4.66.41-3.48.41-10,.41-18V69.73c0-12.94,0-24.15-.17-26.81-.16-2.83-.82-4.16-3.56-4.73a23.48,23.48,0,0,0-2.82-.25l-.67-.5.18-.73S48,37,48.42,37s10.17-.32,10.17-.32l.13.73-.67.5s-1.74.08-2.74.25c-2.41.41-3.07,1.82-3.24,4.73-.16,2.66-.16,13.87-.16,26.81V84.51c0,12.21.43,16.8,1.82,18.39S64.5,105.06,74,105.07H77.1c9.42,0,11.62-1.55,13.5-4a12.52,12.52,0,0,0,1.8-4.43,2.44,2.44,0,0,1,.81-1.3h.9s-1.44,9.23-2,11.28-.63,2.13-2.69,2.13Z"
        transform="translate(-37.13 -36.71)" />
    <path class="cls-2"
        d="M325.34,78.37c-1.89,1.31-6.92,1.56-8.89,1.56-3.61,0-7.38-.57-8.61-1.31a1.08,1.08,0,0,1-.57-1V50.76a1,1,0,0,1,.65-1,25.42,25.42,0,0,1,5.5-.48c8.77,0,16.92,6.16,16.92,16.43,0,6.24-2.13,10.68-5,12.65m29,29c-2.05-.33-5.58-1.23-10-5.92-4.76-5.09-10.33-12.4-17.06-21,7.38-6.82,9.93-12.9,9.93-19a14.35,14.35,0,0,0-5.67-11.17c-4.34-3.12-12.57-3.61-17.75-3.61-2.54,0-8.77.24-9.68.24l-10.58-.25v.66s.34.49.66.49a15.65,15.65,0,0,1,2.79.25c2.71.57,3.36,1.89,3.53,4.68.16,2.63.16,4.93.16,17.76V84.94c0,7.9,0,14.38-.41,17.84-.33,2.38-.74,4.19-2.38,4.52-.74.16-3,.34-3,.34l-.09.48a1.58,1.58,0,0,0,1.31.66h17.8a1.58,1.58,0,0,0,1.31-.66l-.2-.48s-3-.18-4.15-.34c-2.46-.33-2.95-2.14-3.2-4.52-.4-3.46-.4-9.94-.4-17.84V83c0-.41.16-.66.57-.66l12.82.16a1.32,1.32,0,0,1,1.07.5c1.64,2.13,5.5,7.63,8.94,12.16,4.67,6.16,7.55,10.19,11.08,12.08,2.13,1.15,4.17,1.56,8.77,1.56h5.83a2.42,2.42,0,0,0,2-.66l-.41-.53a23.65,23.65,0,0,1-3.53-.21"
        transform="translate(-37.13 -36.71)" />
    <path class="cls-2"
        d="M390.51,105.89a65.59,65.59,0,0,1-10-.3l-2-.65a1.64,1.64,0,0,1-.44-1.31c-.08-2.79-.08-11.15-.08-17.45v-17c0-6.3,0-14.66.08-17.44a1.65,1.65,0,0,1,.44-1.32l2-.65c1.1-.15,3.74-.3,3.77-.3a35.88,35.88,0,0,1,6,.17,28.94,28.94,0,0,1,5.23,1,20.81,20.81,0,0,1,4.88,2.16c8.39,4.86,13.85,12.34,13.94,25.17.07,11.23-3.27,19.65-11.1,24.27-3.77,2.22-7.13,3.23-12.7,3.61m-1.95,2.85c10,0,17.38-2.24,24.64-9.67A21.4,21.4,0,0,0,415.58,96a53,53,0,0,0,2.91-5.5c7.63-19.36-2.5-32.71-4.83-34.94-8-7.7-16.72-8.61-25.14-8.8h0l-24.75-.11v.73s.25.49.58.49.5,0,1.16,0h.1a16.11,16.11,0,0,1,2.34.21,6.44,6.44,0,0,1,.73.19l.21.06a5.51,5.51,0,0,1,.69.31l0,0a3.58,3.58,0,0,1,.55.38l0,0a2.3,2.3,0,0,1,.33.37c0,.06.1.1.14.16l.09.18a6.89,6.89,0,0,1,.68,3c.15,2.62.15,4.92.15,17.69V84.87c0,12.78,0,15.07-.15,17.69a6.89,6.89,0,0,1-.68,3l-.09.18c0,.06-.1.1-.14.16a2.3,2.3,0,0,1-.33.37l0,0a4.51,4.51,0,0,1-.55.39h0a7.47,7.47,0,0,1-.69.31l-.21.06c-.23.07-.46.14-.73.2a18.11,18.11,0,0,1-2.34.2h-.08s0,0,0,0c-.66,0-.67,0-1,0s-.47.49-.47.49v.73Z"
        transform="translate(-37.13 -36.71)" />
</svg>