<svg xmlns="http://www.w3.org/2000/svg" xml:space="preserve" width="2000" height="557"
    viewBox="0 0 2000 557" data-version="1" data-id="lg_WAXobqc7FxQwJoSRhG"><g id="outer-wrapper" data-padding="20" transform="matrix(1,0,0,1,0,0)"><g id="inner-wrapper" transform="matrix(0.9770114942528736,0,0,0.9770114942528736,10,6.402298850574709)"><path fill="ivory" d="M1072.9421176470587 557.13H578.5421176470587S689.1641176470587 62.73000000000002 825.7421176470586 62.73000000000002S1072.9421176470587 557.13 1072.9421176470587 557.13 " opacity=".6"></path><path fill="#ffd2c0" d="M578.5421176470587 -0.12999999999999545H1072.9421176470587S962.3201176470586 494.27 825.7421176470586 494.27S578.5421176470587 -0.12999999999999545 578.5421176470587 -0.12999999999999545 " opacity=".6"></path><rect width="396.841" height="305.1" x="367.91111764705875" y="-274.05" fill="none" rx="0" ry="0" transform="translate(259.91 431.93)"></rect><path fill="#d16ba5" d="M810.9621176470587 292.42H738.3321176470588V325.36H749.1321176470587V306.73L812.8521176470588 304.3V394.75Q783.9621176470587 397.17999999999995 735.2321176470588 397.17999999999995Q686.4921176470588 397.17999999999995 660.9821176470588 372.60999999999996Q635.4621176470588 348.03999999999996 635.4621176470588 299.7099999999999T660.5721176470588 228.69999999999993T735.3621176470588 206.01999999999992Q755.0721176470588 206.01999999999992 773.9721176470588 207.9099999999999T802.0521176470588 211.68999999999988L810.9621176470588 213.57999999999987ZM957.8421176470588 394.74H828.5121176470587V208.17000000000002H927.3321176470588Q974.0421176470587 208.17000000000002 995.1021176470588 221.67000000000002T1016.1621176470587 265.14Q1016.1621176470587 275.66999999999996 1013.4621176470587 284.58T1008.0621176470588 297.27L1005.3621176470588 301.04999999999995Q1014.5421176470588 305.63999999999993 1018.3221176470588 323.46Q1019.9421176470587 330.75 1019.9421176470587 340.2Q1019.9421176470587 365.58 1004.4221176470587 380.15999999999997Q988.8921176470587 394.74 957.8421176470588 394.74M921.3921176470587 301.32H936.7821176470588V287.28Q936.7821176470588 283.77 934.6221176470588 281.73999999999995Q932.4621176470587 279.71999999999997 929.2221176470588 279.71999999999997H921.3921176470587ZM944.3421176470588 314.55H921.3921176470587V329.94H944.3421176470588Q947.3121176470588 329.94 949.6121176470588 327.64Q951.9021176470587 325.34999999999997 951.9021176470587 322.11T949.7421176470588 316.71000000000004T944.3421176470588 314.55 "></path><rect width="281.174" height="47.46" x="425.7451176470586" y="-145.23" fill="none" rx="0" ry="0" transform="translate(626.11 401.63)"></rect></g><rect width="870" height="557" x="565" y="0" id="space-saver" fill="transparent" stroke="transparent"></rect></g></svg>